# Blender v2.82 (sub 7) OBJ File: ''
# www.blender.org
mtllib la wea o.mtl
o Cube
v 1.000000 2.043662 -1.000000
v 1.000000 -2.043662 -1.000000
v 1.000000 2.043662 1.000000
v 1.000000 -2.043662 1.000000
v -1.000000 2.043662 -1.000000
v -1.000000 -2.043662 -1.000000
v -1.000000 2.043662 1.000000
v -1.000000 -2.043662 1.000000
vt 0.625000 0.500000
vt 0.875000 0.500000
vt 0.875000 0.750000
vt 0.625000 0.750000
vt 0.375000 0.750000
vt 0.625000 1.000000
vt 0.375000 1.000000
vt 0.375000 0.000000
vt 0.625000 0.000000
vt 0.625000 0.250000
vt 0.375000 0.250000
vt 0.125000 0.500000
vt 0.375000 0.500000
vt 0.125000 0.750000
vn 0.0000 1.0000 0.0000
vn 0.0000 0.0000 1.0000
vn -1.0000 0.0000 0.0000
vn 0.0000 -1.0000 0.0000
vn 1.0000 0.0000 0.0000
vn 0.0000 0.0000 -1.0000
usemtl Material
s off
f 1/1/1 5/2/1 7/3/1 3/4/1
f 4/5/2 3/4/2 7/6/2 8/7/2
f 8/8/3 7/9/3 5/10/3 6/11/3
f 6/12/4 2/13/4 4/5/4 8/14/4
f 2/13/5 1/1/5 3/4/5 4/5/5
f 6/11/6 5/10/6 1/1/6 2/13/6
o Cube.001
v 1.000566 2.025834 1.000000
v 1.000566 -2.025834 1.000000
v 1.000566 2.025834 -1.000000
v 1.000566 -2.025834 -1.000000
v 9.161817 -2.025834 1.000000
v 9.161817 -2.025834 -1.000000
v 2.575981 2.025834 1.000000
v 9.161817 -1.243716 1.000000
v 9.161817 -1.243716 -1.000000
v 2.575981 2.025834 -1.000000
vt 0.375000 0.000000
vt 0.375000 0.250000
vt 0.625000 0.250000
vt 0.625000 0.000000
vt 0.375000 0.951741
vt 0.375000 1.000000
vt 0.625000 1.000000
vt 0.625000 0.750000
vt 0.576741 0.750000
vt 0.375000 0.298259
vt 0.576741 0.500000
vt 0.625000 0.500000
vt 0.875000 0.750000
vt 0.875000 0.500000
vt 0.173259 0.750000
vt 0.173259 0.500000
vt 0.125000 0.500000
vt 0.125000 0.750000
vn -1.0000 0.0000 0.0000
vn 0.0000 0.0000 1.0000
vn 0.0000 0.0000 -1.0000
vn 1.0000 0.0000 0.0000
vn 0.0000 -1.0000 0.0000
vn 0.4447 0.8957 0.0000
vn 0.0000 1.0000 0.0000
usemtl None
s off
f 9/15/7 11/16/7 12/17/7 10/18/7
f 15/19/8 9/20/8 10/21/8 13/22/8 16/23/8
f 11/16/9 18/24/9 17/25/9 14/26/9 12/17/9
f 17/25/10 16/23/10 13/22/10 14/26/10
f 14/26/11 13/22/11 10/27/11 12/28/11
f 15/29/12 16/23/12 17/25/12 18/30/12
f 11/31/13 9/32/13 15/29/13 18/30/13
o Cube.002
v 9.163336 -1.246617 1.000000
v 9.163336 -2.023853 1.000000
v 9.163336 -1.246617 -1.000000
v 9.163336 -2.023853 -1.000000
v 11.163336 -1.246617 1.000000
v 11.163336 -2.023853 1.000000
v 11.163336 -1.246617 -1.000000
v 11.163336 -2.023853 -1.000000
vt 0.375000 0.000000
vt 0.375000 0.250000
vt 0.625000 0.250000
vt 0.625000 0.000000
vt 0.375000 0.500000
vt 0.625000 0.500000
vt 0.375000 0.750000
vt 0.625000 0.750000
vt 0.375000 1.000000
vt 0.625000 1.000000
vt 0.125000 0.500000
vt 0.125000 0.750000
vt 0.875000 0.750000
vt 0.875000 0.500000
vn -1.0000 0.0000 0.0000
vn 0.0000 0.0000 -1.0000
vn 1.0000 0.0000 0.0000
vn 0.0000 0.0000 1.0000
vn 0.0000 1.0000 0.0000
vn 0.0000 -1.0000 0.0000
usemtl None
s off
f 19/33/14 21/34/14 22/35/14 20/36/14
f 21/34/15 25/37/15 26/38/15 22/35/15
f 25/37/16 23/39/16 24/40/16 26/38/16
f 23/39/17 19/41/17 20/42/17 24/40/17
f 21/43/18 19/44/18 23/39/18 25/37/18
f 26/38/19 24/40/19 20/45/19 22/46/19
